<svg xmlns="http://www.w3.org/2000/svg" xmlns:xlink="http://www.w3.org/1999/xlink" width="720" height="483" version="1.1" viewBox="0 0 6911 4631"><desc>Stata Graph - Graph</desc><rect width="6911" height="4631" x="0" y="0" style="fill:#fff;stroke:none"/><rect width="6910.78" height="4631" x="0" y="0" style="fill:#fff"/><rect width="6905.02" height="4625.24" x="2.88" y="2.88" style="fill:none;stroke:#fff;stroke-width:5.76"/><rect width="6830.88" height="4551.1" x="39.95" y="39.95" style="fill:#fff"/><rect width="6825.12" height="4545.34" x="42.83" y="42.83" style="fill:none;stroke:#fff;stroke-width:5.76"/><rect width="6830.88" height="4440.97" x="39.95" y="39.95" style="fill:#fff"/><rect width="6825.12" height="4435.21" x="42.83" y="42.83" style="fill:none;stroke:#fff;stroke-width:5.76"/><rect width="6750.97" height="4361.07" x="79.91" y="79.9" style="fill:#fff"/><rect width="6745.21" height="4355.31" x="82.79" y="82.78" style="fill:none;stroke:#fff;stroke-width:5.76"/><text x="99.99" y="580.34" style="font-family:'Helvetica';font-size:109.93px;fill:#000">Morton</text><text x="99.99" y="767.78" style="font-family:'Helvetica';font-size:109.93px;fill:#000">Rasmussen</text><text x="99.99" y="955.22" style="font-family:'Helvetica';font-size:109.93px;fill:#000">Smith</text><text x="99.99" y="1142.45" style="font-family:'Helvetica';font-size:109.93px;fill:#000">Abraham</text><text x="99.99" y="1329.89" style="font-family:'Helvetica';font-size:109.93px;fill:#000">Feldstedt</text><text x="99.99" y="1517.34" style="font-family:'Helvetica';font-size:109.93px;fill:#000">Schechter</text><text x="99.99" y="1704.78" style="font-family:'Helvetica';font-size:109.93px;fill:#000">Ceremuzynski</text><text x="99.99" y="1892.22" style="font-family:'Helvetica';font-size:109.93px;fill:#000">Bertschat</text><text x="99.99" y="2079.66" style="font-family:'Helvetica';font-size:109.93px;fill:#000">Singh</text><text x="99.99" y="2267.11" style="font-family:'Helvetica';font-size:109.93px;fill:#000">Pereira</text><text x="99.99" y="2454.55" style="font-family:'Helvetica';font-size:109.93px;fill:#000">Schechter 1</text><text x="99.99" y="2641.78" style="font-family:'Helvetica';font-size:109.93px;fill:#000">Golf</text><text x="99.99" y="2829.22" style="font-family:'Helvetica';font-size:109.93px;fill:#000">Thogersen</text><text x="99.99" y="3016.66" style="font-family:'Helvetica';font-size:109.93px;fill:#000">LIMIT-2</text><text x="99.99" y="3204.1" style="font-family:'Helvetica';font-size:109.93px;fill:#000">Schechter 2</text><text x="99.99" y="3391.55" style="font-family:'Helvetica';font-size:109.93px;fill:#000">ISIS-4</text><text x="99.99" y="3618.51" style="font-family:'Helvetica';font-weight:700;font-size:109.93px;fill:#000">Overall</text><text x="99.99" y="3805.73" style="fill:#000"><tspan style="font-family:'Helvetica';font-size:109.93px">Heterogeneity: τ</tspan> <tspan dy="-57.58" style="font-family:'Helvetica';font-size:64.09px">2</tspan> <tspan dy="57.58" style="font-family:'Helvetica';font-size:109.93px"> = 0.23, I</tspan> <tspan dy="-57.58" style="font-family:'Helvetica';font-size:64.09px">2</tspan> <tspan dy="57.58" style="font-family:'Helvetica';font-size:109.93px"> = 72.32%, H</tspan> <tspan dy="-57.58" style="font-family:'Helvetica';font-size:64.09px">2</tspan> <tspan dy="57.58" style="font-family:'Helvetica';font-size:109.93px"> = 3.61</tspan></text><text x="99.99" y="3993.18" style="fill:#000"><tspan style="font-family:'Helvetica';font-size:109.93px">Test of θ</tspan> <tspan dy="15.7" style="font-family:'Helvetica';font-size:64.09px">i</tspan> <tspan dy="-15.7" style="font-family:'Helvetica';font-size:109.93px"> = θ</tspan> <tspan dy="15.7" style="font-family:'Helvetica';font-size:64.09px">j</tspan> <tspan dy="-15.7" style="font-family:'Helvetica';font-size:109.93px">: Q(15) = 45.09, p = 0.00</tspan></text><text x="99.99" y="4180.62" style="font-family:'Helvetica';font-size:109.93px;fill:#000">Test of θ = 0: z = -3.53, p = 0.00</text><text x="99.99" y="326.9" style="font-family:'Helvetica';font-size:109.93px;fill:#000">Study</text><text x="1174.44" y="580.34" text-anchor="end" style="font-family:'Helvetica';font-size:109.93px;fill:#000">1</text><text x="1174.44" y="767.78" text-anchor="end" style="font-family:'Helvetica';font-size:109.93px;fill:#000">9</text><text x="1174.44" y="955.22" text-anchor="end" style="font-family:'Helvetica';font-size:109.93px;fill:#000">2</text><text x="1174.44" y="1142.45" text-anchor="end" style="font-family:'Helvetica';font-size:109.93px;fill:#000">1</text><text x="1174.44" y="1329.89" text-anchor="end" style="font-family:'Helvetica';font-size:109.93px;fill:#000">10</text><text x="1174.44" y="1517.34" text-anchor="end" style="font-family:'Helvetica';font-size:109.93px;fill:#000">1</text><text x="1174.44" y="1704.78" text-anchor="end" style="font-family:'Helvetica';font-size:109.93px;fill:#000">1</text><text x="1174.44" y="1892.22" text-anchor="end" style="font-family:'Helvetica';font-size:109.93px;fill:#000">0</text><text x="1174.44" y="2079.66" text-anchor="end" style="font-family:'Helvetica';font-size:109.93px;fill:#000">6</text><text x="1174.44" y="2267.11" text-anchor="end" style="font-family:'Helvetica';font-size:109.93px;fill:#000">1</text><text x="1174.44" y="2454.55" text-anchor="end" style="font-family:'Helvetica';font-size:109.93px;fill:#000">2</text><text x="1174.44" y="2641.78" text-anchor="end" style="font-family:'Helvetica';font-size:109.93px;fill:#000">5</text><text x="1174.44" y="2829.22" text-anchor="end" style="font-family:'Helvetica';font-size:109.93px;fill:#000">4</text><text x="1174.44" y="3016.66" text-anchor="end" style="font-family:'Helvetica';font-size:109.93px;fill:#000">90</text><text x="1174.44" y="3204.1" text-anchor="end" style="font-family:'Helvetica';font-size:109.93px;fill:#000">4</text><text x="1174.44" y="3391.55" text-anchor="end" style="font-family:'Helvetica';font-size:109.93px;fill:#000">2,216</text><text x="1053.06" y="326.9" text-anchor="middle" style="font-family:'Helvetica';font-size:109.93px;fill:#000">Yes</text><text x="1265.58" y="176.82" text-anchor="middle" style="font-family:'Helvetica';font-size:109.93px;fill:#000">Treatment</text><text x="1599.9" y="580.34" text-anchor="end" style="font-family:'Helvetica';font-size:109.93px;fill:#000">39</text><text x="1599.9" y="767.78" text-anchor="end" style="font-family:'Helvetica';font-size:109.93px;fill:#000">126</text><text x="1599.9" y="955.22" text-anchor="end" style="font-family:'Helvetica';font-size:109.93px;fill:#000">198</text><text x="1599.9" y="1142.45" text-anchor="end" style="font-family:'Helvetica';font-size:109.93px;fill:#000">47</text><text x="1599.9" y="1329.89" text-anchor="end" style="font-family:'Helvetica';font-size:109.93px;fill:#000">140</text><text x="1599.9" y="1517.34" text-anchor="end" style="font-family:'Helvetica';font-size:109.93px;fill:#000">58</text><text x="1599.9" y="1704.78" text-anchor="end" style="font-family:'Helvetica';font-size:109.93px;fill:#000">24</text><text x="1599.9" y="1892.22" text-anchor="end" style="font-family:'Helvetica';font-size:109.93px;fill:#000">22</text><text x="1599.9" y="2079.66" text-anchor="end" style="font-family:'Helvetica';font-size:109.93px;fill:#000">70</text><text x="1599.9" y="2267.11" text-anchor="end" style="font-family:'Helvetica';font-size:109.93px;fill:#000">26</text><text x="1599.9" y="2454.55" text-anchor="end" style="font-family:'Helvetica';font-size:109.93px;fill:#000">87</text><text x="1599.9" y="2641.78" text-anchor="end" style="font-family:'Helvetica';font-size:109.93px;fill:#000">18</text><text x="1599.9" y="2829.22" text-anchor="end" style="font-family:'Helvetica';font-size:109.93px;fill:#000">126</text><text x="1599.9" y="3016.66" text-anchor="end" style="font-family:'Helvetica';font-size:109.93px;fill:#000">1,069</text><text x="1599.9" y="3204.1" text-anchor="end" style="font-family:'Helvetica';font-size:109.93px;fill:#000">103</text><text x="1599.9" y="3391.55" text-anchor="end" style="font-family:'Helvetica';font-size:109.93px;fill:#000">26,795</text><text x="1447.21" y="326.9" text-anchor="middle" style="font-family:'Helvetica';font-size:109.93px;fill:#000">No</text><text x="1962.94" y="580.34" text-anchor="end" style="font-family:'Helvetica';font-size:109.93px;fill:#000">2</text><text x="1962.94" y="767.78" text-anchor="end" style="font-family:'Helvetica';font-size:109.93px;fill:#000">23</text><text x="1962.94" y="955.22" text-anchor="end" style="font-family:'Helvetica';font-size:109.93px;fill:#000">7</text><text x="1962.94" y="1142.45" text-anchor="end" style="font-family:'Helvetica';font-size:109.93px;fill:#000">1</text><text x="1962.94" y="1329.89" text-anchor="end" style="font-family:'Helvetica';font-size:109.93px;fill:#000">8</text><text x="1962.94" y="1517.34" text-anchor="end" style="font-family:'Helvetica';font-size:109.93px;fill:#000">9</text><text x="1962.94" y="1704.78" text-anchor="end" style="font-family:'Helvetica';font-size:109.93px;fill:#000">3</text><text x="1962.94" y="1892.22" text-anchor="end" style="font-family:'Helvetica';font-size:109.93px;fill:#000">1</text><text x="1962.94" y="2079.66" text-anchor="end" style="font-family:'Helvetica';font-size:109.93px;fill:#000">11</text><text x="1962.94" y="2267.11" text-anchor="end" style="font-family:'Helvetica';font-size:109.93px;fill:#000">7</text><text x="1962.94" y="2454.55" text-anchor="end" style="font-family:'Helvetica';font-size:109.93px;fill:#000">12</text><text x="1962.94" y="2641.78" text-anchor="end" style="font-family:'Helvetica';font-size:109.93px;fill:#000">13</text><text x="1962.94" y="2829.22" text-anchor="end" style="font-family:'Helvetica';font-size:109.93px;fill:#000">8</text><text x="1962.94" y="3016.66" text-anchor="end" style="font-family:'Helvetica';font-size:109.93px;fill:#000">118</text><text x="1962.94" y="3204.1" text-anchor="end" style="font-family:'Helvetica';font-size:109.93px;fill:#000">17</text><text x="1962.94" y="3391.55" text-anchor="end" style="font-family:'Helvetica';font-size:109.93px;fill:#000">2,103</text><text x="1841.35" y="326.9" text-anchor="middle" style="font-family:'Helvetica';font-size:109.93px;fill:#000">Yes</text><text x="2054.08" y="176.82" text-anchor="middle" style="font-family:'Helvetica';font-size:109.93px;fill:#000">Control</text><text x="2388.18" y="580.34" text-anchor="end" style="font-family:'Helvetica';font-size:109.93px;fill:#000">34</text><text x="2388.18" y="767.78" text-anchor="end" style="font-family:'Helvetica';font-size:109.93px;fill:#000">112</text><text x="2388.18" y="955.22" text-anchor="end" style="font-family:'Helvetica';font-size:109.93px;fill:#000">193</text><text x="2388.18" y="1142.45" text-anchor="end" style="font-family:'Helvetica';font-size:109.93px;fill:#000">45</text><text x="2388.18" y="1329.89" text-anchor="end" style="font-family:'Helvetica';font-size:109.93px;fill:#000">140</text><text x="2388.18" y="1517.34" text-anchor="end" style="font-family:'Helvetica';font-size:109.93px;fill:#000">47</text><text x="2388.18" y="1704.78" text-anchor="end" style="font-family:'Helvetica';font-size:109.93px;fill:#000">20</text><text x="2388.18" y="1892.22" text-anchor="end" style="font-family:'Helvetica';font-size:109.93px;fill:#000">20</text><text x="2388.18" y="2079.66" text-anchor="end" style="font-family:'Helvetica';font-size:109.93px;fill:#000">64</text><text x="2388.18" y="2267.11" text-anchor="end" style="font-family:'Helvetica';font-size:109.93px;fill:#000">20</text><text x="2388.18" y="2454.55" text-anchor="end" style="font-family:'Helvetica';font-size:109.93px;fill:#000">68</text><text x="2388.18" y="2641.78" text-anchor="end" style="font-family:'Helvetica';font-size:109.93px;fill:#000">20</text><text x="2388.18" y="2829.22" text-anchor="end" style="font-family:'Helvetica';font-size:109.93px;fill:#000">114</text><text x="2388.18" y="3016.66" text-anchor="end" style="font-family:'Helvetica';font-size:109.93px;fill:#000">1,039</text><text x="2388.18" y="3204.1" text-anchor="end" style="font-family:'Helvetica';font-size:109.93px;fill:#000">91</text><text x="2388.18" y="3391.55" text-anchor="end" style="font-family:'Helvetica';font-size:109.93px;fill:#000">26,936</text><text x="2235.49" y="326.9" text-anchor="middle" style="font-family:'Helvetica';font-size:109.93px;fill:#000">No</text><line x1="4843.32" x2="4843.32" y1="4241" y2="388.71" style="stroke:gray;stroke-width:5.76"/><line x1="4671.84" x2="4165.82" y1="541.81" y2="541.81" style="stroke:#1a476f;stroke-width:8.64"/><line x1="4641.82" x2="4484.59" y1="729.26" y2="729.26" style="stroke:#1a476f;stroke-width:8.64"/><line x1="4574.43" x2="4239.68" y1="916.7" y2="916.7" style="stroke:#1a476f;stroke-width:8.64"/><line x1="4834.03" x2="4245.51" y1="1103.93" y2="1103.93" style="stroke:#1a476f;stroke-width:8.64"/><line x1="4888.24" x2="4694.73" y1="1291.37" y2="1291.37" style="stroke:#1a476f;stroke-width:8.64"/><line x1="4360.41" x2="3924.15" y1="1478.81" y2="1478.81" style="stroke:#1a476f;stroke-width:8.64"/><line x1="4589.55" x2="4119.39" y1="1666.25" y2="1666.25" style="stroke:#1a476f;stroke-width:8.64"/><line x1="4597.97" x2="3922.64" y1="1853.7" y2="1853.7" style="stroke:#1a476f;stroke-width:8.64"/><line x1="4710.28" x2="4508.13" y1="2041.14" y2="2041.14" style="stroke:#1a476f;stroke-width:8.64"/><line x1="4425.63" x2="3990.67" y1="2228.58" y2="2228.58" style="stroke:#1a476f;stroke-width:8.64"/><line x1="4435.78" x2="4121.12" y1="2416.02" y2="2416.02" style="stroke:#1a476f;stroke-width:8.64"/><line x1="4715.68" x2="4526.06" y1="2603.25" y2="2603.25" style="stroke:#1a476f;stroke-width:8.64"/><line x1="4680.91" x2="4428.87" y1="2790.69" y2="2790.69" style="stroke:#1a476f;stroke-width:8.64"/><line x1="4784.79" x2="4728.42" y1="2978.14" y2="2978.14" style="stroke:#1a476f;stroke-width:8.64"/><line x1="4534.7" x2="4308.14" y1="3165.58" y2="3165.58" style="stroke:#1a476f;stroke-width:8.64"/><line x1="4854.76" x2="4842.45" y1="3353.02" y2="3353.02" style="stroke:#1a476f;stroke-width:8.64"/><line x1="4165.82" x2="4165.82" y1="541.81" y2="541.81" stroke-linecap="round" style="stroke:#1a476f;stroke-width:8.64"/><line x1="4165.82" x2="4165.82" y1="541.81" y2="541.81" stroke-linecap="round" style="stroke:#1a476f;stroke-width:8.64"/><line x1="4484.59" x2="4484.59" y1="729.26" y2="729.26" stroke-linecap="round" style="stroke:#1a476f;stroke-width:8.64"/><line x1="4484.59" x2="4484.59" y1="729.26" y2="729.26" stroke-linecap="round" style="stroke:#1a476f;stroke-width:8.64"/><line x1="4239.68" x2="4239.68" y1="916.7" y2="916.7" stroke-linecap="round" style="stroke:#1a476f;stroke-width:8.64"/><line x1="4239.68" x2="4239.68" y1="916.7" y2="916.7" stroke-linecap="round" style="stroke:#1a476f;stroke-width:8.64"/><line x1="4245.51" x2="4245.51" y1="1103.93" y2="1103.93" stroke-linecap="round" style="stroke:#1a476f;stroke-width:8.64"/><line x1="4245.51" x2="4245.51" y1="1103.93" y2="1103.93" stroke-linecap="round" style="stroke:#1a476f;stroke-width:8.64"/><line x1="4694.73" x2="4694.73" y1="1291.37" y2="1291.37" stroke-linecap="round" style="stroke:#1a476f;stroke-width:8.64"/><line x1="4694.73" x2="4694.73" y1="1291.37" y2="1291.37" stroke-linecap="round" style="stroke:#1a476f;stroke-width:8.64"/><line x1="3924.15" x2="3924.15" y1="1478.81" y2="1478.81" stroke-linecap="round" style="stroke:#1a476f;stroke-width:8.64"/><line x1="3924.15" x2="3924.15" y1="1478.81" y2="1478.81" stroke-linecap="round" style="stroke:#1a476f;stroke-width:8.64"/><line x1="4119.39" x2="4119.39" y1="1666.25" y2="1666.25" stroke-linecap="round" style="stroke:#1a476f;stroke-width:8.64"/><line x1="4119.39" x2="4119.39" y1="1666.25" y2="1666.25" stroke-linecap="round" style="stroke:#1a476f;stroke-width:8.64"/><line x1="3922.64" x2="3922.64" y1="1853.7" y2="1853.7" stroke-linecap="round" style="stroke:#1a476f;stroke-width:8.64"/><line x1="3922.64" x2="3922.64" y1="1853.7" y2="1853.7" stroke-linecap="round" style="stroke:#1a476f;stroke-width:8.64"/><line x1="4508.13" x2="4508.13" y1="2041.14" y2="2041.14" stroke-linecap="round" style="stroke:#1a476f;stroke-width:8.64"/><line x1="4508.13" x2="4508.13" y1="2041.14" y2="2041.14" stroke-linecap="round" style="stroke:#1a476f;stroke-width:8.64"/><line x1="3990.67" x2="3990.67" y1="2228.58" y2="2228.58" stroke-linecap="round" style="stroke:#1a476f;stroke-width:8.64"/><line x1="3990.67" x2="3990.67" y1="2228.58" y2="2228.58" stroke-linecap="round" style="stroke:#1a476f;stroke-width:8.64"/><line x1="4121.12" x2="4121.12" y1="2416.02" y2="2416.02" stroke-linecap="round" style="stroke:#1a476f;stroke-width:8.64"/><line x1="4121.12" x2="4121.12" y1="2416.02" y2="2416.02" stroke-linecap="round" style="stroke:#1a476f;stroke-width:8.64"/><line x1="4526.06" x2="4526.06" y1="2603.25" y2="2603.25" stroke-linecap="round" style="stroke:#1a476f;stroke-width:8.64"/><line x1="4526.06" x2="4526.06" y1="2603.25" y2="2603.25" stroke-linecap="round" style="stroke:#1a476f;stroke-width:8.64"/><line x1="4428.87" x2="4428.87" y1="2790.69" y2="2790.69" stroke-linecap="round" style="stroke:#1a476f;stroke-width:8.64"/><line x1="4428.87" x2="4428.87" y1="2790.69" y2="2790.69" stroke-linecap="round" style="stroke:#1a476f;stroke-width:8.64"/><line x1="4728.42" x2="4728.42" y1="2978.14" y2="2978.14" stroke-linecap="round" style="stroke:#1a476f;stroke-width:8.64"/><line x1="4728.42" x2="4728.42" y1="2978.14" y2="2978.14" stroke-linecap="round" style="stroke:#1a476f;stroke-width:8.64"/><line x1="4308.14" x2="4308.14" y1="3165.58" y2="3165.58" stroke-linecap="round" style="stroke:#1a476f;stroke-width:8.64"/><line x1="4308.14" x2="4308.14" y1="3165.58" y2="3165.58" stroke-linecap="round" style="stroke:#1a476f;stroke-width:8.64"/><line x1="4842.45" x2="4842.45" y1="3353.02" y2="3353.02" stroke-linecap="round" style="stroke:#1a476f;stroke-width:8.64"/><line x1="4842.45" x2="4842.45" y1="3353.02" y2="3353.02" stroke-linecap="round" style="stroke:#1a476f;stroke-width:8.64"/><line x1="4671.84" x2="5177.85" y1="541.81" y2="541.81" style="stroke:#1a476f;stroke-width:8.64"/><line x1="4641.82" x2="4799.04" y1="729.26" y2="729.26" style="stroke:#1a476f;stroke-width:8.64"/><line x1="4574.43" x2="4908.97" y1="916.7" y2="916.7" style="stroke:#1a476f;stroke-width:8.64"/><line x1="4834.03" x2="5422.54" y1="1103.93" y2="1103.93" style="stroke:#1a476f;stroke-width:8.64"/><line x1="4888.24" x2="5081.74" y1="1291.37" y2="1291.37" style="stroke:#1a476f;stroke-width:8.64"/><line x1="4360.41" x2="4796.88" y1="1478.81" y2="1478.81" style="stroke:#1a476f;stroke-width:8.64"/><line x1="4589.55" x2="5059.72" y1="1666.25" y2="1666.25" style="stroke:#1a476f;stroke-width:8.64"/><line x1="4597.97" x2="5273.31" y1="1853.7" y2="1853.7" style="stroke:#1a476f;stroke-width:8.64"/><line x1="4710.28" x2="4912.43" y1="2041.14" y2="2041.14" style="stroke:#1a476f;stroke-width:8.64"/><line x1="4425.63" x2="4860.38" y1="2228.58" y2="2228.58" style="stroke:#1a476f;stroke-width:8.64"/><line x1="4435.78" x2="4750.45" y1="2416.02" y2="2416.02" style="stroke:#1a476f;stroke-width:8.64"/><line x1="4715.68" x2="4905.3" y1="2603.25" y2="2603.25" style="stroke:#1a476f;stroke-width:8.64"/><line x1="4680.91" x2="4932.94" y1="2790.69" y2="2790.69" style="stroke:#1a476f;stroke-width:8.64"/><line x1="4784.79" x2="4840.94" y1="2978.14" y2="2978.14" style="stroke:#1a476f;stroke-width:8.64"/><line x1="4534.7" x2="4761.25" y1="3165.58" y2="3165.58" style="stroke:#1a476f;stroke-width:8.64"/><line x1="4854.76" x2="4867.07" y1="3353.02" y2="3353.02" style="stroke:#1a476f;stroke-width:8.64"/><line x1="5177.85" x2="5177.85" y1="541.81" y2="541.81" stroke-linecap="round" style="stroke:#1a476f;stroke-width:8.64"/><line x1="5177.85" x2="5177.85" y1="541.81" y2="541.81" stroke-linecap="round" style="stroke:#1a476f;stroke-width:8.64"/><line x1="4799.04" x2="4799.04" y1="729.26" y2="729.26" stroke-linecap="round" style="stroke:#1a476f;stroke-width:8.64"/><line x1="4799.04" x2="4799.04" y1="729.26" y2="729.26" stroke-linecap="round" style="stroke:#1a476f;stroke-width:8.64"/><line x1="4908.97" x2="4908.97" y1="916.7" y2="916.7" stroke-linecap="round" style="stroke:#1a476f;stroke-width:8.64"/><line x1="4908.97" x2="4908.97" y1="916.7" y2="916.7" stroke-linecap="round" style="stroke:#1a476f;stroke-width:8.64"/><line x1="5422.54" x2="5422.54" y1="1103.93" y2="1103.93" stroke-linecap="round" style="stroke:#1a476f;stroke-width:8.64"/><line x1="5422.54" x2="5422.54" y1="1103.93" y2="1103.93" stroke-linecap="round" style="stroke:#1a476f;stroke-width:8.64"/><line x1="5081.74" x2="5081.74" y1="1291.37" y2="1291.37" stroke-linecap="round" style="stroke:#1a476f;stroke-width:8.64"/><line x1="5081.74" x2="5081.74" y1="1291.37" y2="1291.37" stroke-linecap="round" style="stroke:#1a476f;stroke-width:8.64"/><line x1="4796.88" x2="4796.88" y1="1478.81" y2="1478.81" stroke-linecap="round" style="stroke:#1a476f;stroke-width:8.64"/><line x1="4796.88" x2="4796.88" y1="1478.81" y2="1478.81" stroke-linecap="round" style="stroke:#1a476f;stroke-width:8.64"/><line x1="5059.72" x2="5059.72" y1="1666.25" y2="1666.25" stroke-linecap="round" style="stroke:#1a476f;stroke-width:8.64"/><line x1="5059.72" x2="5059.72" y1="1666.25" y2="1666.25" stroke-linecap="round" style="stroke:#1a476f;stroke-width:8.64"/><line x1="5273.31" x2="5273.31" y1="1853.7" y2="1853.7" stroke-linecap="round" style="stroke:#1a476f;stroke-width:8.64"/><line x1="5273.31" x2="5273.31" y1="1853.7" y2="1853.7" stroke-linecap="round" style="stroke:#1a476f;stroke-width:8.64"/><line x1="4912.43" x2="4912.43" y1="2041.14" y2="2041.14" stroke-linecap="round" style="stroke:#1a476f;stroke-width:8.64"/><line x1="4912.43" x2="4912.43" y1="2041.14" y2="2041.14" stroke-linecap="round" style="stroke:#1a476f;stroke-width:8.64"/><line x1="4860.38" x2="4860.38" y1="2228.58" y2="2228.58" stroke-linecap="round" style="stroke:#1a476f;stroke-width:8.64"/><line x1="4860.38" x2="4860.38" y1="2228.58" y2="2228.58" stroke-linecap="round" style="stroke:#1a476f;stroke-width:8.64"/><line x1="4750.45" x2="4750.45" y1="2416.02" y2="2416.02" stroke-linecap="round" style="stroke:#1a476f;stroke-width:8.64"/><line x1="4750.45" x2="4750.45" y1="2416.02" y2="2416.02" stroke-linecap="round" style="stroke:#1a476f;stroke-width:8.64"/><line x1="4905.3" x2="4905.3" y1="2603.25" y2="2603.25" stroke-linecap="round" style="stroke:#1a476f;stroke-width:8.64"/><line x1="4905.3" x2="4905.3" y1="2603.25" y2="2603.25" stroke-linecap="round" style="stroke:#1a476f;stroke-width:8.64"/><line x1="4932.94" x2="4932.94" y1="2790.69" y2="2790.69" stroke-linecap="round" style="stroke:#1a476f;stroke-width:8.64"/><line x1="4932.94" x2="4932.94" y1="2790.69" y2="2790.69" stroke-linecap="round" style="stroke:#1a476f;stroke-width:8.64"/><line x1="4840.94" x2="4840.94" y1="2978.14" y2="2978.14" stroke-linecap="round" style="stroke:#1a476f;stroke-width:8.64"/><line x1="4840.94" x2="4840.94" y1="2978.14" y2="2978.14" stroke-linecap="round" style="stroke:#1a476f;stroke-width:8.64"/><line x1="4761.25" x2="4761.25" y1="3165.58" y2="3165.58" stroke-linecap="round" style="stroke:#1a476f;stroke-width:8.64"/><line x1="4761.25" x2="4761.25" y1="3165.58" y2="3165.58" stroke-linecap="round" style="stroke:#1a476f;stroke-width:8.64"/><line x1="4867.07" x2="4867.07" y1="3353.02" y2="3353.02" stroke-linecap="round" style="stroke:#1a476f;stroke-width:8.64"/><line x1="4867.07" x2="4867.07" y1="3353.02" y2="3353.02" stroke-linecap="round" style="stroke:#1a476f;stroke-width:8.64"/><rect width="49.24" height="49.24" x="4647.21" y="517.19" style="fill:#1a476f"/><rect width="40.6" height="40.6" x="4651.53" y="521.51" style="fill:none;stroke:#1a476f;stroke-width:8.64"/><rect width="95.46" height="95.45" x="4594.09" y="681.53" style="fill:#1a476f"/><rect width="86.82" height="86.81" x="4598.41" y="685.85" style="fill:none;stroke:#1a476f;stroke-width:8.64"/><rect width="65.22" height="65.22" x="4541.61" y="884.09" style="fill:#1a476f"/><rect width="56.58" height="56.58" x="4545.93" y="888.41" style="fill:none;stroke:#1a476f;stroke-width:8.64"/><rect width="44.06" height="44.06" x="4812" y="1082.11" style="fill:#1a476f"/><rect width="35.42" height="35.42" x="4816.32" y="1086.43" style="fill:none;stroke:#1a476f;stroke-width:8.64"/><rect width="88.12" height="88.11" x="4844.18" y="1247.53" style="fill:#1a476f"/><rect width="79.48" height="79.47" x="4848.5" y="1251.85" style="fill:none;stroke:#1a476f;stroke-width:8.64"/><rect width="54.86" height="54.85" x="4332.98" y="1451.6" style="fill:#1a476f"/><rect width="46.22" height="46.21" x="4337.3" y="1455.92" style="fill:none;stroke:#1a476f;stroke-width:8.64"/><rect width="51.83" height="51.83" x="4563.63" y="1640.55" style="fill:#1a476f"/><rect width="43.19" height="43.19" x="4567.96" y="1644.87" style="fill:none;stroke:#1a476f;stroke-width:8.64"/><rect width="40.17" height="40.17" x="4577.67" y="1833.61" style="fill:#1a476f"/><rect width="31.53" height="31.53" x="4581.99" y="1837.93" style="fill:none;stroke:#1a476f;stroke-width:8.64"/><rect width="86.39" height="86.38" x="4667.08" y="1997.95" style="fill:#1a476f"/><rect width="77.75" height="77.74" x="4671.4" y="2002.27" style="fill:none;stroke:#1a476f;stroke-width:8.64"/><rect width="54.86" height="54.85" x="4397.99" y="2201.15" style="fill:#1a476f"/><rect width="46.22" height="46.21" x="4402.31" y="2205.47" style="fill:none;stroke:#1a476f;stroke-width:8.64"/><rect width="67.82" height="67.81" x="4401.87" y="2382.12" style="fill:#1a476f"/><rect width="59.18" height="59.17" x="4406.19" y="2386.44" style="fill:none;stroke:#1a476f;stroke-width:8.64"/><rect width="88.98" height="88.97" x="4670.97" y="2558.98" style="fill:#1a476f"/><rect width="80.34" height="80.33" x="4675.29" y="2563.3" style="fill:none;stroke:#1a476f;stroke-width:8.64"/><rect width="77.32" height="77.31" x="4642.03" y="2752.25" style="fill:#1a476f"/><rect width="68.68" height="68.67" x="4646.35" y="2756.57" style="fill:none;stroke:#1a476f;stroke-width:8.64"/><rect width="114.9" height="114.89" x="4727.12" y="2920.91" style="fill:#1a476f"/><rect width="106.26" height="106.25" x="4731.44" y="2925.23" style="fill:none;stroke:#1a476f;stroke-width:8.64"/><rect width="81.64" height="81.63" x="4493.66" y="3124.98" style="fill:#1a476f"/><rect width="73" height="72.99" x="4497.98" y="3129.3" style="fill:none;stroke:#1a476f;stroke-width:8.64"/><rect width="118.78" height="118.77" x="4795.15" y="3293.63" style="fill:#1a476f"/><rect width="110.14" height="110.13" x="4799.47" y="3297.95" style="fill:none;stroke:#1a476f;stroke-width:8.64"/><defs><path id="path_cNcQZpIi" stroke-linejoin="round" d="M4854.55 3353.02 M4619.36 3579.98 L4699.26 3634.19 L4779.17 3579.98 L4699.26 3525.56 Z"/></defs><defs><clipPath id="clipPath_yQPnzyCf"><use xlink:href="#path_cNcQZpIi"/></clipPath></defs><use xlink:href="#path_cNcQZpIi" style="stroke:none;fill:#55752f"/><use style="fill:none;stroke:#55752f;stroke-width:17.28" clip-path="url(#clipPath_yQPnzyCf)" xlink:href="#path_cNcQZpIi"/><line x1="3922.64" x2="5422.54" y1="4241" y2="4241" style="stroke:#000;stroke-width:5.76"/><line x1="3950.72" x2="3950.72" y1="4241" y2="4280.95" style="stroke:#000;stroke-width:5.76"/><text x="3950.72" y="4377.87" text-anchor="middle" style="font-family:'Helvetica';font-size:109.93px;fill:#000">1/64</text><line x1="4396.91" x2="4396.91" y1="4241" y2="4280.95" style="stroke:#000;stroke-width:5.76"/><text x="4396.91" y="4377.87" text-anchor="middle" style="font-family:'Helvetica';font-size:109.93px;fill:#000">1/8</text><line x1="4843.32" x2="4843.32" y1="4241" y2="4280.95" style="stroke:#000;stroke-width:5.76"/><text x="4843.32" y="4377.87" text-anchor="middle" style="font-family:'Helvetica';font-size:109.93px;fill:#000">1</text><line x1="5289.51" x2="5289.51" y1="4241" y2="4280.95" style="stroke:#000;stroke-width:5.76"/><text x="5289.51" y="4377.87" text-anchor="middle" style="font-family:'Helvetica';font-size:109.93px;fill:#000">8</text><text x="5910.63" y="326.9" text-anchor="middle" style="font-family:'Helvetica';font-size:109.93px;fill:#000">with 95% CI</text><text x="5910.63" y="176.82" text-anchor="middle" style="font-family:'Helvetica';font-size:109.93px;fill:#000">Risk Ratio</text><text x="5729" y="580.34" text-anchor="end" style="font-family:'Helvetica';font-size:109.93px;fill:#000">0.45 [</text><text x="5729" y="767.78" text-anchor="end" style="font-family:'Helvetica';font-size:109.93px;fill:#000">0.39 [</text><text x="5729" y="955.22" text-anchor="end" style="font-family:'Helvetica';font-size:109.93px;fill:#000">0.29 [</text><text x="5729" y="1142.45" text-anchor="end" style="font-family:'Helvetica';font-size:109.93px;fill:#000">0.96 [</text><text x="5729" y="1329.89" text-anchor="end" style="font-family:'Helvetica';font-size:109.93px;fill:#000">1.23 [</text><text x="5729" y="1517.34" text-anchor="end" style="font-family:'Helvetica';font-size:109.93px;fill:#000">0.11 [</text><text x="5729" y="1704.78" text-anchor="end" style="font-family:'Helvetica';font-size:109.93px;fill:#000">0.31 [</text><text x="5729" y="1892.22" text-anchor="end" style="font-family:'Helvetica';font-size:109.93px;fill:#000">0.32 [</text><text x="5729" y="2079.66" text-anchor="end" style="font-family:'Helvetica';font-size:109.93px;fill:#000">0.54 [</text><text x="5729" y="2267.11" text-anchor="end" style="font-family:'Helvetica';font-size:109.93px;fill:#000">0.14 [</text><text x="5729" y="2454.55" text-anchor="end" style="font-family:'Helvetica';font-size:109.93px;fill:#000">0.15 [</text><text x="5729" y="2641.78" text-anchor="end" style="font-family:'Helvetica';font-size:109.93px;fill:#000">0.55 [</text><text x="5729" y="2829.22" text-anchor="end" style="font-family:'Helvetica';font-size:109.93px;fill:#000">0.47 [</text><text x="5729" y="3016.66" text-anchor="end" style="font-family:'Helvetica';font-size:109.93px;fill:#000">0.76 [</text><text x="5729" y="3204.1" text-anchor="end" style="font-family:'Helvetica';font-size:109.93px;fill:#000">0.24 [</text><text x="5729" y="3391.55" text-anchor="end" style="font-family:'Helvetica';font-size:109.93px;fill:#000">1.05 [</text><text x="5729" y="3618.51" text-anchor="end" style="font-family:'Helvetica';font-size:109.93px;fill:#000">0.51 [</text><text x="6003.07" y="580.34" text-anchor="end" style="font-family:'Helvetica';font-size:109.93px;fill:#000">0.04,</text><text x="6003.07" y="767.78" text-anchor="end" style="font-family:'Helvetica';font-size:109.93px;fill:#000">0.19,</text><text x="6003.07" y="955.22" text-anchor="end" style="font-family:'Helvetica';font-size:109.93px;fill:#000">0.06,</text><text x="6003.07" y="1142.45" text-anchor="end" style="font-family:'Helvetica';font-size:109.93px;fill:#000">0.06,</text><text x="6003.07" y="1329.89" text-anchor="end" style="font-family:'Helvetica';font-size:109.93px;fill:#000">0.50,</text><text x="6003.07" y="1517.34" text-anchor="end" style="font-family:'Helvetica';font-size:109.93px;fill:#000">0.01,</text><text x="6003.07" y="1704.78" text-anchor="end" style="font-family:'Helvetica';font-size:109.93px;fill:#000">0.03,</text><text x="6003.07" y="1892.22" text-anchor="end" style="font-family:'Helvetica';font-size:109.93px;fill:#000">0.01,</text><text x="6003.07" y="2079.66" text-anchor="end" style="font-family:'Helvetica';font-size:109.93px;fill:#000">0.21,</text><text x="6003.07" y="2267.11" text-anchor="end" style="font-family:'Helvetica';font-size:109.93px;fill:#000">0.02,</text><text x="6003.07" y="2454.55" text-anchor="end" style="font-family:'Helvetica';font-size:109.93px;fill:#000">0.03,</text><text x="6003.07" y="2641.78" text-anchor="end" style="font-family:'Helvetica';font-size:109.93px;fill:#000">0.23,</text><text x="6003.07" y="2829.22" text-anchor="end" style="font-family:'Helvetica';font-size:109.93px;fill:#000">0.14,</text><text x="6003.07" y="3016.66" text-anchor="end" style="font-family:'Helvetica';font-size:109.93px;fill:#000">0.59,</text><text x="6003.07" y="3204.1" text-anchor="end" style="font-family:'Helvetica';font-size:109.93px;fill:#000">0.08,</text><text x="6003.07" y="3391.55" text-anchor="end" style="font-family:'Helvetica';font-size:109.93px;fill:#000">1.00,</text><text x="6003.07" y="3618.51" text-anchor="end" style="font-family:'Helvetica';font-size:109.93px;fill:#000">0.35,</text><text x="6358.55" y="580.34" text-anchor="end" style="font-family:'Helvetica';font-size:109.93px;fill:#000">4.76]</text><text x="6358.55" y="767.78" text-anchor="end" style="font-family:'Helvetica';font-size:109.93px;fill:#000">0.81]</text><text x="6358.55" y="955.22" text-anchor="end" style="font-family:'Helvetica';font-size:109.93px;fill:#000">1.36]</text><text x="6358.55" y="1142.45" text-anchor="end" style="font-family:'Helvetica';font-size:109.93px;fill:#000">14.87]</text><text x="6358.55" y="1329.89" text-anchor="end" style="font-family:'Helvetica';font-size:109.93px;fill:#000">3.04]</text><text x="6358.55" y="1517.34" text-anchor="end" style="font-family:'Helvetica';font-size:109.93px;fill:#000">0.81]</text><text x="6358.55" y="1704.78" text-anchor="end" style="font-family:'Helvetica';font-size:109.93px;fill:#000">2.74]</text><text x="6358.55" y="1892.22" text-anchor="end" style="font-family:'Helvetica';font-size:109.93px;fill:#000">7.42]</text><text x="6358.55" y="2079.66" text-anchor="end" style="font-family:'Helvetica';font-size:109.93px;fill:#000">1.38]</text><text x="6358.55" y="2267.11" text-anchor="end" style="font-family:'Helvetica';font-size:109.93px;fill:#000">1.08]</text><text x="6358.55" y="2454.55" text-anchor="end" style="font-family:'Helvetica';font-size:109.93px;fill:#000">0.65]</text><text x="6358.55" y="2641.78" text-anchor="end" style="font-family:'Helvetica';font-size:109.93px;fill:#000">1.33]</text><text x="6358.55" y="2829.22" text-anchor="end" style="font-family:'Helvetica';font-size:109.93px;fill:#000">1.52]</text><text x="6358.55" y="3016.66" text-anchor="end" style="font-family:'Helvetica';font-size:109.93px;fill:#000">0.99]</text><text x="6358.55" y="3204.1" text-anchor="end" style="font-family:'Helvetica';font-size:109.93px;fill:#000">0.68]</text><text x="6358.55" y="3391.55" text-anchor="end" style="font-family:'Helvetica';font-size:109.93px;fill:#000">1.12]</text><text x="6358.55" y="3618.51" text-anchor="end" style="font-family:'Helvetica';font-size:109.93px;fill:#000">0.74]</text><text x="6736.07" y="580.34" text-anchor="end" style="font-family:'Helvetica';font-size:109.93px;fill:#000">2.16</text><text x="6736.07" y="767.78" text-anchor="end" style="font-family:'Helvetica';font-size:109.93px;fill:#000">9.85</text><text x="6736.07" y="955.22" text-anchor="end" style="font-family:'Helvetica';font-size:109.93px;fill:#000">4.20</text><text x="6736.07" y="1142.45" text-anchor="end" style="font-family:'Helvetica';font-size:109.93px;fill:#000">1.65</text><text x="6736.07" y="1329.89" text-anchor="end" style="font-family:'Helvetica';font-size:109.93px;fill:#000">8.23</text><text x="6736.07" y="1517.34" text-anchor="end" style="font-family:'Helvetica';font-size:109.93px;fill:#000">2.77</text><text x="6736.07" y="1704.78" text-anchor="end" style="font-family:'Helvetica';font-size:109.93px;fill:#000">2.44</text><text x="6736.07" y="1892.22" text-anchor="end" style="font-family:'Helvetica';font-size:109.93px;fill:#000">1.29</text><text x="6736.07" y="2079.66" text-anchor="end" style="font-family:'Helvetica';font-size:109.93px;fill:#000">7.88</text><text x="6736.07" y="2267.11" text-anchor="end" style="font-family:'Helvetica';font-size:109.93px;fill:#000">2.79</text><text x="6736.07" y="2454.55" text-anchor="end" style="font-family:'Helvetica';font-size:109.93px;fill:#000">4.59</text><text x="6736.07" y="2641.78" text-anchor="end" style="font-family:'Helvetica';font-size:109.93px;fill:#000">8.40</text><text x="6736.07" y="2829.22" text-anchor="end" style="font-family:'Helvetica';font-size:109.93px;fill:#000">6.16</text><text x="6736.07" y="3016.66" text-anchor="end" style="font-family:'Helvetica';font-size:109.93px;fill:#000">14.75</text><text x="6736.07" y="3204.1" text-anchor="end" style="font-family:'Helvetica';font-size:109.93px;fill:#000">6.98</text><text x="6736.07" y="3391.55" text-anchor="end" style="font-family:'Helvetica';font-size:109.93px;fill:#000">15.85</text><text x="6614.69" y="326.9" text-anchor="middle" style="font-family:'Helvetica';font-size:109.93px;fill:#000">(%)</text><text x="6614.69" y="176.82" text-anchor="middle" style="font-family:'Helvetica';font-size:109.93px;fill:#000">Weight</text><line x1="79.91" x2="6830.88" y1="384.39" y2="384.39" style="stroke:#000;stroke-width:8.64"/><text x="39.95" y="4574.51" style="font-family:'Helvetica';font-size:109.93px;fill:#000">Random-effects REML model</text></svg>